<svg width="16" height="16" viewBox="0 0 16 16" fill="none" xmlns="http://www.w3.org/2000/svg">
<path fill-rule="evenodd" clip-rule="evenodd" d="M6.34567 1.26195C7.12283 0.454069 8.17692 0.000135178 9.27609 0H11.4076C11.5646 0 11.7152 0.0648349 11.8263 0.180242C11.9373 0.295649 11.9997 0.452174 11.9997 0.615385V3.56923C11.9997 3.73244 11.9373 3.88897 11.8263 4.00437C11.7152 4.11978 11.5646 4.18462 11.4076 4.18462H9.27609C9.26054 4.18462 9.24514 4.1878 9.23077 4.19398C9.2164 4.20017 9.20335 4.20923 9.19235 4.22066C9.18136 4.23209 9.17263 4.24566 9.16668 4.26059C9.16073 4.27553 9.15767 4.29153 9.15767 4.30769V5.90769H11.4076C11.4976 5.90764 11.5864 5.92892 11.6673 5.96991C11.7483 6.0109 11.8191 6.07053 11.8745 6.14426C11.9299 6.21799 11.9684 6.30388 11.9871 6.39539C12.0058 6.48691 12.0041 6.58165 11.9823 6.67241L11.2718 9.62626C11.2397 9.75944 11.1658 9.87765 11.0616 9.9621C10.9575 10.0466 10.8292 10.0924 10.6971 10.0923H9.15767V15.3846C9.15767 15.5478 9.09529 15.7044 8.98425 15.8198C8.87321 15.9352 8.72262 16 8.56559 16H5.72358C5.56655 16 5.41596 15.9352 5.30492 15.8198C5.19388 15.7044 5.1315 15.5478 5.1315 15.3846V10.0923H3.59208C3.43505 10.0923 3.28445 10.0275 3.17342 9.91207C3.06238 9.79666 3 9.64013 3 9.47692V6.52308C3 6.44226 3.01531 6.36224 3.04507 6.28758C3.07482 6.21292 3.11844 6.14508 3.17342 6.08793C3.2284 6.03079 3.29367 5.98546 3.3655 5.95454C3.43734 5.92361 3.51433 5.90769 3.59208 5.90769H5.1315V4.30769C5.13163 3.16527 5.56838 2.06969 6.34567 1.26195ZM9.27609 1.23077C8.49093 1.23077 7.73794 1.55494 7.18275 2.13198C6.62757 2.70901 6.31567 3.49164 6.31567 4.30769V6.52308C6.31567 6.68629 6.25329 6.84281 6.14225 6.95822C6.03121 7.07363 5.88061 7.13846 5.72358 7.13846H4.18417V8.86154H5.72358C5.88061 8.86154 6.03121 8.92637 6.14225 9.04178C6.25329 9.15719 6.31567 9.31371 6.31567 9.47692V14.7692H7.9735V9.47692C7.9735 9.31371 8.03588 9.15719 8.14692 9.04178C8.25796 8.92637 8.40856 8.86154 8.56559 8.86154H10.2345L10.6489 7.13846H8.56559C8.40856 7.13846 8.25796 7.07363 8.14692 6.95822C8.03588 6.84281 7.9735 6.68629 7.9735 6.52308V4.30769C7.9735 3.94863 8.11074 3.60427 8.35502 3.35038C8.5993 3.09648 8.93062 2.95385 9.27609 2.95385H10.8155V1.23077H9.27609Z" fill="#1C3144"/>
</svg>
