<svg width="17" height="18" viewBox="0 0 17 18" fill="none" xmlns="http://www.w3.org/2000/svg">
<path d="M4.22462 2.55935C4.22801 2.98492 4.06142 3.3947 3.76087 3.70009C3.46032 4.00548 3.04997 4.18194 2.61855 4.1913C2.18803 4.17588 1.77998 3.99791 1.47875 3.69417C1.17751 3.39044 1.00612 2.98417 1 2.55935C1.01861 2.14533 1.19622 1.7538 1.49681 1.46421C1.7974 1.17462 2.19844 1.00866 2.61855 1C3.03743 1.00882 3.43705 1.1752 3.73561 1.46508C4.03418 1.75496 4.20912 2.14643 4.22462 2.55935ZM1.17346 7.09092C1.17346 6.1531 1.7787 6.29956 2.61855 6.29956C3.4584 6.29956 4.05116 6.1531 4.05116 7.09092V16.2279C4.05116 17.1781 3.44592 16.9836 2.61855 16.9836C1.79118 16.9836 1.17346 17.1781 1.17346 16.2279V7.09092ZM6.547 7.09215C6.547 6.56786 6.74418 6.37217 7.05241 6.31187C7.36065 6.25156 8.42388 6.31187 8.79451 6.31187C9.16514 6.31187 9.31364 6.90877 9.30116 7.35922C9.61855 6.94015 10.0394 6.60818 10.5237 6.3949C11.008 6.18162 11.5395 6.09414 12.0678 6.14079C12.5866 6.10955 13.1063 6.18628 13.5931 6.36601C14.0799 6.54573 14.5229 6.82443 14.8934 7.184C15.2639 7.54357 15.5535 7.97597 15.7435 8.45313C15.9335 8.93028 16.0196 9.44151 15.9963 9.95362V16.191C15.9963 17.1411 15.4035 16.9467 14.5624 16.9467C13.7225 16.9467 13.1298 17.1411 13.1298 16.191V11.3185C13.1515 11.0678 13.1183 10.8154 13.0324 10.5784C12.9465 10.3414 12.8098 10.1255 12.6318 9.94524C12.4538 9.76498 12.2385 9.62461 12.0005 9.53368C11.7626 9.44275 11.5076 9.40338 11.2529 9.41825C10.9992 9.41166 10.7469 9.45833 10.5129 9.55519C10.2788 9.65204 10.0683 9.79686 9.89532 9.98004C9.72233 10.1632 9.5908 10.3806 9.50945 10.6177C9.42809 10.8548 9.39878 11.1063 9.42346 11.3554V16.2279C9.42346 17.1781 8.81822 16.9836 7.97837 16.9836C7.13852 16.9836 6.54576 17.1781 6.54576 16.2279V7.09092L6.547 7.09215Z" stroke="#1C3144" stroke-width="1.5" stroke-linecap="round" stroke-linejoin="round"/>
</svg>
