<svg width="16" height="16" viewBox="0 0 16 16" fill="none" xmlns="http://www.w3.org/2000/svg">
<path fill-rule="evenodd" clip-rule="evenodd" d="M8.00123 1.59382C6.30385 1.59513 4.6765 2.27067 3.4772 3.47183C2.27789 4.67299 1.60487 6.30138 1.60618 7.99876C1.60683 8.83922 1.77301 9.67132 2.09524 10.4476C2.26638 10.8598 2.47976 11.2521 2.73134 11.6182C4.3707 10.8128 6.17593 10.3925 8.00864 10.3938C9.90062 10.3924 11.6925 10.8294 13.2867 11.6099C13.5377 11.2434 13.7504 10.8509 13.9209 10.4384C14.2419 9.66169 14.4068 8.82933 14.4062 7.98887C14.4049 6.29149 13.7293 4.66414 12.5282 3.46484C11.327 2.26553 9.69862 1.59251 8.00123 1.59382ZM14.1422 13.1269C14.6637 12.5035 15.0881 11.8032 15.3996 11.0496C15.8009 10.0787 16.007 9.03821 16.0062 7.98764C16.0045 5.86591 15.1601 3.83173 13.6587 2.33259C12.1572 0.833463 10.1217 -0.00781949 8 -0.00618035C5.87827 -0.00454122 3.84409 0.839885 2.34496 2.34133C0.845824 3.84278 0.00454127 5.87827 0.00618035 8C0.00699197 9.05057 0.214722 10.0907 0.617509 11.061C0.930167 11.8142 1.3556 12.5138 1.87806 13.1364C1.88986 13.1514 1.90212 13.1659 1.91482 13.1799C2.05442 13.3439 2.20081 13.5024 2.3537 13.655C3.09714 14.3973 3.97951 14.9859 4.95042 15.3872C5.92134 15.7885 6.96178 15.9946 8.01236 15.9938C9.06293 15.993 10.1031 15.7853 11.0734 15.3825C12.0437 14.9797 12.9251 14.3897 13.6674 13.6463C13.82 13.4934 13.9662 13.3347 14.1055 13.1705C14.1182 13.1565 14.1305 13.142 14.1422 13.1269ZM12.1687 12.8552C10.8952 12.3 9.48895 11.9927 8.00927 11.9938L8.00806 11.9938C6.57358 11.9928 5.15854 12.2899 3.85139 12.8618C4.36212 13.2978 4.9391 13.6513 5.56157 13.9085C6.3383 14.2296 7.17066 14.3945 8.01112 14.3938C8.85158 14.3932 9.68368 14.227 10.4599 13.9048C11.0821 13.6465 11.6586 13.292 12.1687 12.8552ZM8.00371 4.79382C7.57936 4.79415 7.17252 4.96303 6.8727 5.26332C6.57287 5.56361 6.40461 5.97071 6.40494 6.39505C6.40527 6.8194 6.57416 7.22624 6.87445 7.52606C7.17473 7.82589 7.58183 7.99415 8.00618 7.99382C8.43052 7.99349 8.83736 7.8246 9.13719 7.52431C9.43701 7.22403 9.60527 6.81693 9.60494 6.39258C9.60461 5.96823 9.43573 5.5614 9.13544 5.26157C8.83515 4.96175 8.42805 4.79349 8.00371 4.79382ZM5.74045 4.13282C6.34011 3.53224 7.15378 3.19447 8.00247 3.19382C8.85116 3.19316 9.66536 3.52968 10.2659 4.12933C10.8665 4.72898 11.2043 5.54265 11.2049 6.39135C11.2056 7.24004 10.8691 8.05423 10.2694 8.65481C9.66978 9.25539 8.85611 9.59316 8.00741 9.59382C7.15872 9.59447 6.34453 9.25796 5.74395 8.65831C5.14337 8.05865 4.8056 7.24498 4.80494 6.39629C4.80429 5.5476 5.1408 4.7334 5.74045 4.13282Z" fill="#1C3144"/>
</svg>
