<svg width="16" height="17" viewBox="0 0 16 17" fill="none" xmlns="http://www.w3.org/2000/svg">
<path fill-rule="evenodd" clip-rule="evenodd" d="M0.70353 3.15847C1.15329 2.73616 1.76355 2.49864 2.40006 2.49815L13.5999 2.48949C14.2365 2.489 14.8471 2.72558 15.2975 3.14719C15.7479 3.5688 16.0012 4.1409 16.0016 4.73764L16.0022 5.476C16.0023 5.4833 16.0023 5.4906 16.0022 5.4979L16.0074 12.2376C16.0079 12.8344 15.7555 13.4069 15.3057 13.8292C14.856 14.2515 14.2457 14.489 13.6092 14.4895L2.40933 14.4981C1.77282 14.4986 1.16219 14.2621 0.711782 13.8404C0.261374 13.4188 0.00807836 12.8467 0.00761735 12.25L0.0024106 5.51025C0.00229167 5.50296 0.00228584 5.49567 0.00239369 5.48837L0.00182327 4.75C0.00136226 4.15326 0.253774 3.58077 0.70353 3.15847ZM1.60347 6.90015L1.6076 12.2488C1.60775 12.4477 1.69219 12.6384 1.84232 12.7789C1.99246 12.9194 2.196 12.9983 2.40817 12.9981L13.608 12.9895C13.8202 12.9893 14.0236 12.9102 14.1736 12.7694C14.3235 12.6286 14.4076 12.4378 14.4075 12.2389L14.4033 6.89026L9.33783 10.0617C9.33775 10.0617 9.33767 10.0618 9.33759 10.0618C8.94344 10.3087 8.48015 10.4407 8.00614 10.441C7.53212 10.4414 7.06863 10.3102 6.6741 10.0639C6.67402 10.0638 6.67394 10.0638 6.67386 10.0637L1.60347 6.90015ZM14.4019 5.08749L8.44912 8.81444L8.44888 8.81459C8.31748 8.89692 8.16302 8.94092 8.00498 8.94104C7.84694 8.94116 7.69241 8.8974 7.56089 8.81527L7.56065 8.81512L1.60208 5.09738L1.60181 4.74876C1.60165 4.54985 1.68579 4.35902 1.83571 4.21825C1.98563 4.07748 2.18905 3.99831 2.40122 3.99815L13.6011 3.98949C13.8133 3.98933 14.0168 4.06819 14.1669 4.20873C14.3171 4.34926 14.4015 4.53996 14.4017 4.73887L14.4019 5.08749Z" fill="#1C3144"/>
</svg>
