<svg width="16" height="16" viewBox="0 0 16 16" fill="none" xmlns="http://www.w3.org/2000/svg">
<path fill-rule="evenodd" clip-rule="evenodd" d="M7.32652 0.0210895C7.80287 0.139784 8.0928 0.622156 7.9741 1.0985L7.14171 4.43902L10.6425 4.43632L11.5823 0.664547C11.701 0.188205 12.1834 -0.101725 12.6597 0.0169694C13.1361 0.135664 13.426 0.618036 13.3073 1.09438L12.4749 4.4349L15.1141 4.43286C15.605 4.43248 16.0033 4.83013 16.0037 5.32104C16.0041 5.81195 15.6064 6.21021 15.1155 6.21059L12.0318 6.21298L11.1457 9.76912L13.3405 9.76743C13.8314 9.76705 14.2297 10.1647 14.2301 10.6556C14.2305 11.1465 13.8328 11.5448 13.3419 11.5452L10.7027 11.5472L9.76282 15.319C9.64412 15.7953 9.16175 16.0852 8.68541 15.9665C8.20907 15.8478 7.91914 15.3655 8.03783 14.8891L8.87022 11.5486L5.36947 11.5513L4.42963 15.3231C4.31093 15.7994 3.82856 16.0894 3.35222 15.9707C2.87588 15.852 2.58595 15.3696 2.70464 14.8933L3.53703 11.5527L0.897792 11.5548C0.406886 11.5552 0.00861967 11.1575 0.00824042 10.6666C0.00786117 10.1757 0.405512 9.77742 0.896419 9.77704L3.98009 9.77466L4.86621 6.21851L2.6714 6.22021C2.1805 6.22059 1.78223 5.82294 1.78185 5.33203C1.78147 4.84112 2.17912 4.44286 2.67003 4.44248L5.30927 4.44044L6.24912 0.668667C6.36781 0.192325 6.85018 -0.097605 7.32652 0.0210895ZM6.69865 6.2171L5.81253 9.77324L9.31328 9.77054L10.1994 6.21439L6.69865 6.2171Z" fill="#1C3144"/>
</svg>
