<svg width="16" height="17" viewBox="0 0 16 17" fill="none" xmlns="http://www.w3.org/2000/svg">
<path fill-rule="evenodd" clip-rule="evenodd" d="M8.00124 2.93826C7.61547 2.93856 7.24561 3.09103 6.97304 3.36213C6.70047 3.63322 6.54751 4.00074 6.54781 4.38383C6.5481 4.76692 6.70163 5.1342 6.97462 5.40488C7.24761 5.67555 7.6177 5.82745 8.00347 5.82715C8.38924 5.82685 8.75909 5.67439 9.03166 5.40329C9.30423 5.13219 9.45719 4.76467 9.4569 4.38158C9.4566 3.99849 9.30307 3.63121 9.03008 3.36054C8.75709 3.08986 8.38701 2.93797 8.00124 2.93826ZM5.94374 2.34154C6.48888 1.79935 7.22858 1.49442 8.00012 1.49382C8.77166 1.49322 9.51183 1.79702 10.0578 2.33837C10.6038 2.87972 10.9108 3.61428 10.9114 4.38046C10.912 5.14664 10.6061 5.88168 10.061 6.42387C9.51583 6.96606 8.77612 7.271 8.00458 7.2716C7.23305 7.27219 6.49287 6.9684 5.94689 6.42705C5.40091 5.8857 5.09385 5.15114 5.09326 4.38496C5.09267 3.61877 5.39859 2.88374 5.94374 2.34154ZM2.91256 5.83108C2.71968 5.83123 2.53475 5.90747 2.39846 6.04302C2.26218 6.17856 2.1857 6.36232 2.18585 6.55387C2.18599 6.74541 2.26276 6.92905 2.39925 7.06439C2.53575 7.19973 2.72079 7.27568 2.91368 7.27553C3.10656 7.27538 3.29149 7.19915 3.42777 7.0636C3.56406 6.92805 3.64054 6.74429 3.64039 6.55274C3.64024 6.3612 3.56348 6.17756 3.42698 6.04222C3.29049 5.90688 3.10544 5.83094 2.91256 5.83108ZM1.36916 5.02243C1.77801 4.61579 2.33279 4.38709 2.91144 4.38664C3.4901 4.38619 4.04523 4.61404 4.45471 5.02005C4.8642 5.42606 5.09449 5.97699 5.09494 6.55162C5.09538 7.12626 4.86594 7.67753 4.45708 8.08418C4.04822 8.49082 3.49345 8.71953 2.91479 8.71997C2.33614 8.72042 1.78101 8.49257 1.37152 8.08656C0.962039 7.68055 0.731744 7.12963 0.7313 6.55499C0.730856 5.98036 0.9603 5.42908 1.36916 5.02243ZM13.0944 5.82322C12.9015 5.82337 12.7166 5.8996 12.5803 6.03515C12.444 6.1707 12.3675 6.35446 12.3677 6.546C12.3678 6.73755 12.4446 6.92119 12.5811 7.05653C12.7176 7.19186 12.9026 7.26781 13.0955 7.26766C13.2884 7.26751 13.4733 7.19128 13.6096 7.05573C13.7459 6.92018 13.8224 6.73642 13.8222 6.54488C13.8221 6.35333 13.7453 6.16969 13.6088 6.03436C13.4723 5.89902 13.2873 5.82307 13.0944 5.82322ZM11.551 5.01457C11.9598 4.60792 12.5146 4.37922 13.0933 4.37877C13.6719 4.37833 14.227 4.60617 14.6365 5.01218C15.046 5.4182 15.2763 5.96912 15.2768 6.54375C15.2772 7.11839 15.0478 7.66967 14.6389 8.07631C14.23 8.48296 13.6753 8.71166 13.0966 8.71211C12.518 8.71255 11.9628 8.48471 11.5533 8.0787C11.1439 7.67268 10.9136 7.12176 10.9131 6.54713C10.9127 5.97249 11.1421 5.42121 11.551 5.01457ZM8.00626 9.43775C7.42462 9.4382 6.85646 9.61169 6.37506 9.93585C5.92126 10.2414 5.56418 10.6677 5.34406 11.1649L5.17018 13.0516L10.8479 13.0472L10.6711 11.1608C10.4502 10.6639 10.0925 10.2382 9.63822 9.93333C9.15632 9.60992 8.58789 9.4373 8.00626 9.43775ZM12.3727 13.046L14.5545 13.0443L14.5539 12.3221C14.5539 12.3221 14.5539 12.3222 14.5539 12.3221C14.5537 12.022 14.4593 11.7293 14.2838 11.4849C14.1083 11.2404 13.8605 11.0564 13.5748 10.9583C13.2891 10.8601 12.9798 10.8529 12.6897 10.9374C12.5176 10.9876 12.3573 11.0686 12.2164 11.1756C12.3178 11.542 12.3718 11.9273 12.3721 12.3238L12.3727 13.046ZM11.5919 9.85267C11.2862 9.41637 10.9008 9.03727 10.4527 8.73655C9.72994 8.25151 8.87745 7.99264 8.00514 7.99331C7.13284 7.99398 6.28074 8.25418 5.55876 8.74033C5.11113 9.04174 4.72626 9.42144 4.4213 9.85821C4.20703 9.72973 3.97573 9.6285 3.73264 9.55805C3.15228 9.38984 2.53357 9.40538 1.9625 9.60249C1.39144 9.7996 0.896407 10.1685 0.546214 10.6579C0.196022 11.1473 0.00807166 11.7329 0.00849126 12.3333L0.0096072 13.7778C0.00991534 14.1766 0.335776 14.4997 0.737438 14.4994L15.2829 14.4882C15.6845 14.4879 16.0099 14.1643 16.0096 13.7654L16.0085 12.321C16.008 11.7206 15.8191 11.1352 15.4682 10.6464C15.1172 10.1575 14.6216 9.78938 14.0503 9.59315C13.4789 9.39692 12.8602 9.38234 12.2801 9.55144C12.0371 9.62227 11.8059 9.72386 11.5919 9.85267ZM3.79884 11.1821C3.65774 11.0754 3.49734 10.9946 3.32511 10.9446C3.03493 10.8605 2.72557 10.8683 2.44004 10.9669C2.15451 11.0654 1.90699 11.2499 1.7319 11.4946C1.55681 11.7393 1.46284 12.032 1.46304 12.3322C1.46304 12.3322 1.46304 12.3322 1.46304 12.3322L1.46359 13.0544L3.64541 13.0527L3.64485 12.3305C3.64455 11.934 3.69795 11.5487 3.79884 11.1821Z" fill="#1C3144"/>
</svg>
