<svg width="24" height="24" viewBox="0 0 24 24" fill="none" xmlns="http://www.w3.org/2000/svg">
<path fill-rule="evenodd" clip-rule="evenodd" d="M12 2.4C9.45392 2.4 7.01212 3.41143 5.21177 5.21178C3.41143 7.01212 2.4 9.45392 2.4 12C2.4 13.2607 2.64831 14.509 3.13076 15.6738C3.6132 16.8385 4.32033 17.8968 5.21177 18.7882C6.10322 19.6797 7.16151 20.3868 8.32624 20.8692C9.49096 21.3517 10.7393 21.6 12 21.6C13.2607 21.6 14.509 21.3517 15.6738 20.8692C16.8385 20.3868 17.8968 19.6797 18.7882 18.7882C19.6797 17.8968 20.3868 16.8385 20.8692 15.6738C21.3517 14.509 21.6 13.2607 21.6 12C21.6 9.45392 20.5886 7.01212 18.7882 5.21178C16.9879 3.41143 14.5461 2.4 12 2.4ZM3.51472 3.51472C5.76516 1.26428 8.8174 0 12 0C15.1826 0 18.2348 1.26428 20.4853 3.51472C22.7357 5.76516 24 8.8174 24 12C24 13.5759 23.6896 15.1363 23.0866 16.5922C22.4835 18.0481 21.5996 19.371 20.4853 20.4853C19.371 21.5996 18.0481 22.4835 16.5922 23.0866C15.1363 23.6896 13.5759 24 12 24C10.4241 24 8.86371 23.6896 7.4078 23.0866C5.95189 22.4835 4.62902 21.5996 3.51472 20.4853C2.40042 19.371 1.5165 18.0481 0.913446 16.5922C0.310389 15.1363 0 13.5759 0 12C7.15256e-08 8.8174 1.26428 5.76516 3.51472 3.51472ZM12 7.2C10.2337 7.2 8.96626 8.04755 8.55911 8.91154C8.27659 9.51105 7.56157 9.76802 6.96206 9.48551C6.36255 9.20299 6.10558 8.48797 6.38809 7.88846C7.29854 5.95645 9.58549 4.8 12 4.8C13.5604 4.8 15.019 5.27264 16.1146 6.09439C17.2105 6.91647 18 8.14363 18 9.6C18 12.0842 15.7984 13.8097 13.4192 14.2668C13.3316 14.2837 13.262 14.3269 13.2244 14.3667C13.2074 14.3846 13.2015 14.3968 13.2002 14.3999C13.2001 14.4001 13.2003 14.3998 13.2002 14.3999C13.2 15.0625 12.6626 15.6 12 15.6C11.3373 15.6 10.8 15.0627 10.8 14.4C10.8 13.0277 11.8928 12.116 12.9667 11.9099C14.7345 11.5701 15.6 10.4758 15.6 9.6C15.6 9.06797 15.3155 8.49513 14.6744 8.01431C14.033 7.53316 13.0916 7.2 12 7.2ZM10.8 18C10.8 17.3373 11.3373 16.8 12 16.8H12.012C12.6747 16.8 13.212 17.3373 13.212 18C13.212 18.6627 12.6747 19.2 12.012 19.2H12C11.3373 19.2 10.8 18.6627 10.8 18Z" fill="#1C3144"/>
</svg>
