<svg width="24" height="24" viewBox="0 0 24 24" fill="none" xmlns="http://www.w3.org/2000/svg">
<path fill-rule="evenodd" clip-rule="evenodd" d="M8.82343 2.49767C9.6319 -0.83256 14.3681 -0.832555 15.1766 2.49767C15.3154 3.06947 15.9705 3.34083 16.473 3.03466C19.3995 1.25151 22.7485 4.60051 20.9653 7.52702C20.6592 8.0295 20.9305 8.68461 21.5023 8.82342C24.8326 9.6319 24.8326 14.3681 21.5023 15.1766C20.9305 15.3154 20.6592 15.9705 20.9653 16.473C22.7485 19.3995 19.3995 22.7485 16.473 20.9653C15.9705 20.6592 15.3154 20.9305 15.1766 21.5023C14.3681 24.8326 9.6319 24.8326 8.82343 21.5023C8.68461 20.9305 8.0295 20.6592 7.52702 20.9653C4.60052 22.7485 1.25151 19.3995 3.03466 16.473C3.34083 15.9705 3.06948 15.3154 2.49767 15.1766C-0.832555 14.3681 -0.83256 9.6319 2.49767 8.82342C3.06947 8.68461 3.34083 8.0295 3.03466 7.52702C1.25151 4.60051 4.60051 1.25151 7.52702 3.03466C8.0295 3.34083 8.68461 3.06947 8.82343 2.49767ZM12.8443 3.06387C12.6294 2.17871 11.3706 2.17871 11.1557 3.06387C10.6334 5.21516 8.16871 6.23607 6.27823 5.08418C5.50037 4.61022 4.61022 5.50037 5.08418 6.27823C6.23607 8.16871 5.21516 10.6334 3.06387 11.1557C2.17871 11.3706 2.17871 12.6294 3.06387 12.8443C5.21516 13.3666 6.23607 15.8313 5.08418 17.7218C4.61023 18.4996 5.50037 19.3898 6.27823 18.9158C8.16871 17.7639 10.6334 18.7848 11.1557 20.9361C11.3706 21.8213 12.6294 21.8213 12.8443 20.9361C13.3666 18.7848 15.8313 17.7639 17.7218 18.9158C18.4996 19.3898 19.3898 18.4996 18.9158 17.7218C17.7639 15.8313 18.7848 13.3666 20.9361 12.8443C21.8213 12.6294 21.8213 11.3706 20.9361 11.1557C18.7848 10.6334 17.7639 8.16871 18.9158 6.27823C19.3898 5.50037 18.4996 4.61023 17.7218 5.08418C15.8313 6.23607 13.3666 5.21516 12.8443 3.06387ZM12 9.6C10.6745 9.6 9.6 10.6745 9.6 12C9.6 13.3255 10.6745 14.4 12 14.4C13.3255 14.4 14.4 13.3255 14.4 12C14.4 10.6745 13.3255 9.6 12 9.6ZM7.2 12C7.2 9.34903 9.34903 7.2 12 7.2C14.651 7.2 16.8 9.34903 16.8 12C16.8 14.651 14.651 16.8 12 16.8C9.34903 16.8 7.2 14.651 7.2 12Z" fill="#1C3144"/>
</svg>
