<svg width="17" height="16" viewBox="0 0 17 16" fill="none" xmlns="http://www.w3.org/2000/svg">
<path d="M12.2885 11.2941V14.3058C12.2885 14.5055 12.2092 14.697 12.068 14.8382C11.9269 14.9795 11.7355 15.0588 11.5359 15.0588H1.75256C1.55297 15.0588 1.36155 14.9795 1.22042 14.8382C1.07929 14.697 1 14.5055 1 14.3058V2.2588C1 2.05911 1.07929 1.86759 1.22042 1.72639C1.36155 1.58519 1.55297 1.50586 1.75256 1.50586H7.02051" stroke="#1C3144" stroke-width="1.5" stroke-linecap="round" stroke-linejoin="round"/>
<path d="M9.27771 12.047H4.00977M7.02002 9.03528H4.00977" stroke="#1C3144" stroke-width="1.5" stroke-linecap="round" stroke-linejoin="round"/>
<path fill-rule="evenodd" clip-rule="evenodd" d="M11.8192 1.03911C10.7215 1.03996 9.66899 1.47707 8.89336 2.25429C8.11773 3.03151 7.68246 4.08517 7.68331 5.18348C7.68372 5.72731 7.7912 6.26573 7.9996 6.768C8.208 7.27027 8.51323 7.72655 8.89788 8.1108C9.28253 8.49504 9.73906 8.79973 10.2414 9.00745C10.7437 9.21518 11.2821 9.32188 11.8256 9.32146C12.3692 9.32104 12.9073 9.21351 13.4093 9.005C13.9114 8.7965 14.3674 8.49111 14.7515 8.10627C15.1355 7.72143 15.4401 7.26468 15.6477 6.76209C15.8553 6.25949 15.9619 5.72091 15.9615 5.17708C15.9607 4.07878 15.5238 3.02579 14.7469 2.24977C13.9701 1.47375 12.917 1.03826 11.8192 1.03911ZM8.1611 1.52279C9.13064 0.551268 10.4462 0.00487406 11.8184 0.00381345C13.1906 0.00275283 14.507 0.547112 15.4781 1.51714C16.4491 2.48716 16.9952 3.8034 16.9963 5.17628C16.9968 5.85607 16.8635 6.5293 16.604 7.15754C16.3445 7.78578 15.9638 8.35672 15.4837 8.83777C15.0037 9.31882 14.4336 9.70056 13.8061 9.96119C13.1785 10.2218 12.5059 10.3562 11.8264 10.3568C11.147 10.3573 10.4741 10.2239 9.84615 9.96425C9.21822 9.70459 8.64756 9.32373 8.16675 8.84343C7.68594 8.36312 7.30439 7.79276 7.0439 7.16493C6.7834 6.53709 6.64905 5.86406 6.64853 5.18428C6.64747 3.8114 7.19156 2.49432 8.1611 1.52279ZM11.8204 2.59205C12.1062 2.59183 12.338 2.82341 12.3382 3.10929L12.3396 4.96547L13.7413 6.36571C13.9436 6.56771 13.9438 6.89546 13.7419 7.09777C13.54 7.30008 13.2124 7.30034 13.0102 7.09834L11.4568 5.5466C11.3597 5.44959 11.3051 5.31797 11.305 5.18068L11.3034 3.11009C11.3032 2.82421 11.5347 2.59227 11.8204 2.59205Z" fill="#1C3144"/>
</svg>
